<svg xmlns="http://www.w3.org/2000/svg" width="120" height="33.243" viewBox="0 0 120 33.243"><defs><style>.cls-2{fill:#fff}</style></defs><g id="footer-logo" opacity=".702" transform="translate(-.16 -5.125)"><g id="그룹_56" transform="translate(.16 5.125)"><path id="패스_97" d="M51.971 13.918a12.018 12.018 0 00-2.823.309h-4.393V30.91h5.679V18.3a1.541 1.541 0 113.082 0v12.61h5.669V19.482c.001-4.024-3.226-5.564-7.214-5.564z" class="cls-2" transform="translate(-8.597 -6.789)"/><path id="패스_98" d="M30.275 13.918c-3.982 0-7.211 1.54-7.211 5.563v.245h5.669V18.3a1.542 1.542 0 113.084 0v8.582a1.542 1.542 0 11-3.084 0v-5.011c-3.29-.474-4.721 1.355-4.721 1.355a4.806 4.806 0 00-.677 4.856c1.105 2.259 3.717 3.174 6.786 3.174a13.085 13.085 0 003.1-.342h4.268V19.482c-.001-4.024-3.23-5.564-7.214-5.564z" class="cls-2" transform="translate(-4.473 -6.789)"/><path id="패스_99" d="M73.54 22.178v3.157H75v1.544a1.429 1.429 0 01-1.609 1.572 1.4 1.4 0 01-1.536-1.572V18.3a1.539 1.539 0 113.078 0v1.429H80.6c0-4.307-3.29-5.808-7.2-5.808-3.981 0-7.211 1.54-7.211 5.563v6.211c0 4.027 3.231 5.563 7.211 5.563s7.211-1.537 7.211-5.563v-3.517z" class="cls-2" transform="translate(-12.651 -6.789)"/><path id="패스_100" d="M137.577 13.918a12.011 12.011 0 00-2.824.309h-4.4V30.91h5.678V18.3a1.541 1.541 0 113.082 0v12.61h5.674V19.482c.005-4.024-3.228-5.564-7.21-5.564z" class="cls-2" transform="translate(-24.792 -6.789)"/><g id="그룹_51" transform="translate(70.766)"><path id="패스_101" d="M123.053 16.9v-6.213c0-4.024-3.229-5.562-7.211-5.562s-7.214 1.538-7.214 5.562v.245h5.672V9.5a1.541 1.541 0 113.08 0v8.579c0 .06 0 .12-.007.173 2.652-.72 4.667-1.1 5.678-1.264z" class="cls-2" transform="translate(-91.447 -5.125)"/><path id="패스_102" d="M114.277 19.921v-5.005c-3.295-.475-4.722 1.355-4.722 1.355a4.819 4.819 0 00-.679 4.858 4.759 4.759 0 001.077 1.427 71.225 71.225 0 014.584-1.629 1.81 1.81 0 01-.26-1.006z" class="cls-2" transform="translate(-91.423 -6.962)"/><path id="패스_103" d="M93.113 29.6v-1.284h-5.674v.1a4.95 4.95 0 003.579 5.016 58.23 58.23 0 013.236-2.292 1.389 1.389 0 01-1.141-1.54z" class="cls-2" transform="translate(-87.439 -9.512)"/><path id="패스_104" d="M98.229 23.055v5.551a2.239 2.239 0 01-.02.332 63.656 63.656 0 015.468-2.945c-.439-1.327-1.723-3.085-5.448-2.938z" class="cls-2" transform="translate(-89.476 -8.516)"/><path id="패스_105" d="M93.113 23.944V18.3a1.54 1.54 0 113.079 0v1.429h5.672v-.245c0-4.023-3.232-5.563-7.213-5.563s-7.211 1.54-7.211 5.563c-.001-.002-.179 4.897 5.673 4.46z" class="cls-2" transform="translate(-87.439 -6.789)"/></g><g id="그룹_54" transform="translate(0 3.77)"><g id="그룹_52"><path id="패스_106" d="M6.225 18.769V9.774H.16v8.995z" class="cls-2" transform="translate(-.16 -9.774)"/><path id="패스_107" d="M.16 23.795v8.99h6.065v-8.99z" class="cls-2" transform="translate(-.16 -12.427)"/></g><g id="그룹_53" transform="translate(6.623)"><path id="패스_108" d="M19.337 9.774h-6.411L8.35 18.743c.662.074 7.25.583 10.987-8.969z" class="cls-2" transform="translate(-8.332 -9.774)"/><path id="패스_109" d="M8.328 23.829l4.594 8.963h6.411c-3.113-9.345-10.695-8.981-11.005-8.963z" class="cls-2" transform="translate(-8.328 -12.432)"/></g></g><g id="그룹_55" transform="translate(75.003 27.677)"><path id="패스_110" d="M96.653 39.852l-.384.4a1.945 1.945 0 00-1.123-.325 1.512 1.512 0 00-1.46.894 3.011 3.011 0 00-.254 1.383 2.467 2.467 0 00.189 1.1 1.68 1.68 0 001.6.957 2.048 2.048 0 001.16-.334l.381.433a3.36 3.36 0 01-1.654.426 2.444 2.444 0 01-2.441-2.673 2.518 2.518 0 012.493-2.685 2.66 2.66 0 011.493.424z" class="cls-2" transform="translate(-92.664 -39.292)"/><path id="패스_111" d="M101.233 42.139a2.361 2.361 0 01.2 1.138 1.983 1.983 0 01-.13.819.934.934 0 01-.931.573 1.067 1.067 0 01-.876-.383 2.38 2.38 0 01-.271-1.237 1.87 1.87 0 01.21-.986 1.063 1.063 0 01.882-.409 1.021 1.021 0 01.916.485zm-2.743 1.008a1.913 1.913 0 003.038 1.647 1.758 1.758 0 00.676-1.563 2.187 2.187 0 00-.4-1.4 1.885 1.885 0 00-3.315 1.32z" class="cls-2" transform="translate(-93.766 -39.621)"/><path id="패스_112" d="M104.425 41.317l.659-.16a1.169 1.169 0 01.155.593 2.049 2.049 0 011.357-.584 1.178 1.178 0 011.06.554 1.007 1.007 0 01.1.438v2.871h-.687v-2.56c0-.4-.024-.508-.155-.626a.664.664 0 00-.476-.162 2.1 2.1 0 00-1.192.531v2.817h-.659v-2.818a1.461 1.461 0 00-.162-.894z" class="cls-2" transform="translate(-94.889 -39.619)"/><path id="패스_113" d="M112.755 41.387l-.251.441a2.7 2.7 0 00-1.082-.278c-.495 0-.816.254-.816.623a.473.473 0 00.124.333.815.815 0 00.5.214l.57.106c.783.152 1.152.493 1.152 1.054 0 .737-.656 1.237-1.627 1.237a3.542 3.542 0 01-1.584-.379L110 44.3a2.863 2.863 0 001.368.357c.531 0 .878-.25.878-.651 0-.342-.218-.533-.713-.622l-.535-.1a1.417 1.417 0 01-.814-.379.912.912 0 01-.276-.662c0-.682.628-1.161 1.528-1.161a3.118 3.118 0 011.319.305z" class="cls-2" transform="translate(-95.895 -39.605)"/><path id="패스_114" d="M116.82 41.011l-.21.462h-.91V43.9c0 .417.132.562.553.562a1.059 1.059 0 00.436-.076l.1.38a1.78 1.78 0 01-.766.151 1.381 1.381 0 01-.561-.106.713.713 0 01-.417-.751v-2.587h-.559v-.462h.559v-.044a7.393 7.393 0 01.063-.79l.008-.1.7-.135a8.464 8.464 0 00-.085 1.069z" class="cls-2" transform="translate(-96.792 -39.39)"/><path id="패스_115" d="M118.369 41.3l.673-.16a1.011 1.011 0 01.148.562v.054a1.613 1.613 0 011.211-.631.938.938 0 01.236.037l-.28.647a.521.521 0 00-.188-.033 1.088 1.088 0 00-.716.274.64.64 0 00-.257.6v2.367h-.671v-2.878a1.594 1.594 0 00-.156-.839z" class="cls-2" transform="translate(-97.527 -39.614)"/><path id="패스_116" d="M121.965 41.28l.665-.113v2.717c0 .371.053.507.253.622a1.113 1.113 0 00.536.145 1.323 1.323 0 001.1-.682v-2.681l.665-.1v2.679a1.271 1.271 0 00.1.7.614.614 0 00.2.214l-.436.4a.993.993 0 01-.47-.6 1.687 1.687 0 01-1.365.578 1.182 1.182 0 01-1.131-.542 1.209 1.209 0 01-.113-.561z" class="cls-2" transform="translate(-98.207 -39.621)"/><path id="패스_117" d="M130.37 41.559l-.373.409a1.192 1.192 0 00-.821-.3.962.962 0 00-.814.426 2.421 2.421 0 00-.242 1.236c0 .849.373 1.313 1.068 1.313a1.263 1.263 0 00.924-.409l.371.378a1.8 1.8 0 01-1.314.5 1.663 1.663 0 01-1.378-.569 2.064 2.064 0 01-.415-1.344 1.93 1.93 0 01.65-1.608 1.681 1.681 0 011.168-.441 1.793 1.793 0 011.176.409z" class="cls-2" transform="translate(-99.231 -39.618)"/><path id="패스_118" d="M133.985 41.011l-.21.462h-.909V43.9c0 .417.128.562.554.562a1.02 1.02 0 00.431-.076l.093.38a1.745 1.745 0 01-.756.151 1.376 1.376 0 01-.564-.106.708.708 0 01-.415-.751v-2.587h-.562v-.462h.562v-.044c0-.193.02-.4.06-.79v-.1l.7-.135a8.385 8.385 0 00-.086 1.069z" class="cls-2" transform="translate(-100.039 -39.39)"/><path id="패스_119" d="M135.631 40.906l.719-.1v3.863h-.719zm.36-1.646a.467.467 0 110 .924.492.492 0 01-.522-.457.5.5 0 01.522-.466z" class="cls-2" transform="translate(-100.762 -39.261)"/><path id="패스_120" d="M140.837 42.139a2.4 2.4 0 01.2 1.138 2.042 2.042 0 01-.128.819.944.944 0 01-.935.573 1.072 1.072 0 01-.876-.383 2.378 2.378 0 01-.267-1.237 1.9 1.9 0 01.206-.986 1.063 1.063 0 01.882-.409 1.032 1.032 0 01.918.485zm-2.746 1.008a1.914 1.914 0 003.039 1.647 1.762 1.762 0 00.673-1.563 2.186 2.186 0 00-.393-1.4 1.8 1.8 0 00-1.485-.66 1.769 1.769 0 00-1.833 1.976z" class="cls-2" transform="translate(-101.258 -39.621)"/><path id="패스_121" d="M144.026 41.317l.66-.16a1.174 1.174 0 01.153.593 2.053 2.053 0 011.36-.584 1.177 1.177 0 011.058.554 1.028 1.028 0 01.1.438v2.871h-.683v-2.56c0-.4-.026-.508-.156-.626a.664.664 0 00-.478-.162 2.1 2.1 0 00-1.194.531v2.817h-.655v-2.818a1.454 1.454 0 00-.165-.894z" class="cls-2" transform="translate(-102.381 -39.619)"/></g></g></g></svg>