<svg xmlns="http://www.w3.org/2000/svg" width="184.6" height="50" viewBox="0 0 184.6 50"><defs><style>.cls-1{fill:#63b23a}</style></defs><g id="header-logo-color" transform="translate(-126.996 -369.891)"><path id="패스_53" d="M248.85 391.242a18.871 18.871 0 00-4.343.466h-6.758V416.8h8.737v-18.97a2.37 2.37 0 014.741 0v18.97h8.722v-17.19c-.001-6.051-4.964-8.368-11.099-8.368z" class="cls-1" transform="translate(-55.13 -10.628)"/><path id="패스_54" d="M194.869 391.242c-6.128 0-11.1 2.317-11.1 8.368v.369h8.731v-2.151a2.371 2.371 0 014.742 0v12.908a2.371 2.371 0 01-4.742 0V403.2c-5.061-.711-7.263 2.039-7.263 2.039-2.9 3.256-1.042 7.3-1.042 7.3 1.7 3.4 5.718 4.773 10.439 4.773a20.577 20.577 0 004.769-.515h6.565v-17.2c-.003-6.038-4.968-8.355-11.099-8.355z" class="cls-1" transform="translate(-28.18 -10.628)"/><path id="패스_55" d="M302.284 403.666v4.749h2.251v2.322a2.177 2.177 0 01-2.475 2.367 2.128 2.128 0 01-2.363-2.367v-12.908a2.368 2.368 0 014.736 0v2.151h8.706c0-6.479-5.061-8.737-11.08-8.737-6.125 0-11.095 2.317-11.095 8.368v9.343c0 6.056 4.969 8.367 11.095 8.367s11.094-2.311 11.094-8.367v-5.287z" class="cls-1" transform="translate(-81.62 -10.628)"/><path id="패스_56" d="M461.455 391.242a18.868 18.868 0 00-4.343.466h-6.762V416.8h8.735v-18.97a2.37 2.37 0 014.74 0v18.97h8.728v-17.19c0-6.051-4.971-8.368-11.098-8.368z" class="cls-1" transform="translate(-160.958 -10.628)"/><g id="그룹_92" transform="translate(235.858 369.891)"><path id="패스_57" d="M418.575 387.6v-9.346c0-6.053-4.97-8.366-11.1-8.366s-11.1 2.313-11.1 8.366v.369h8.726v-2.147a2.369 2.369 0 114.739 0v12.9c0 .09 0 .181-.01.261 4.081-1.083 7.181-1.649 8.737-1.9z" class="cls-1" transform="translate(-369.953 -369.891)"/><path id="패스_58" d="M404.948 401.12v-7.528c-5.066-.715-7.262 2.038-7.262 2.038-2.894 3.259-1.045 7.307-1.045 7.307a7.127 7.127 0 001.656 2.146c2.49-.957 4.857-1.771 7.054-2.45a2.657 2.657 0 01-.403-1.513z" class="cls-1" transform="translate(-369.791 -381.629)"/><path id="패스_59" d="M352.486 428.139V426.2h-8.728v.153c0 4.04 2.215 6.413 5.507 7.545a88.458 88.458 0 014.976-3.447 2.1 2.1 0 01-1.755-2.312z" class="cls-1" transform="translate(-343.757 -397.921)"/><path id="패스_60" d="M370.536 413.422v8.349a3.166 3.166 0 01-.032.5 99.484 99.484 0 018.41-4.43c-.673-1.996-2.648-4.641-8.378-4.419z" class="cls-1" transform="translate(-357.071 -391.553)"/><path id="패스_61" d="M352.485 406.322v-8.493a2.369 2.369 0 014.737 0v2.151h8.724v-.369c0-6.051-4.969-8.368-11.095-8.368s-11.094 2.317-11.094 8.368c0-.001-.272 7.367 8.728 6.711z" class="cls-1" transform="translate(-343.756 -380.519)"/></g><path id="패스_62" fill="#383e8e" d="M136.325 394.708V381.18H127v13.529z" transform="translate(0 -5.619)"/><path id="패스_63" d="M127 415.225v13.521h9.329v-13.521z" class="cls-1" transform="translate(0 -22.566)"/><g id="그룹_93" transform="translate(137.182 375.561)"><path id="패스_64" d="M164.238 381.18h-9.863l-7.04 13.49c1.02.11 11.153.876 16.903-13.49z" class="cls-1" transform="translate(-147.307 -381.18)"/><path id="패스_65" d="M147.279 415.3l7.068 13.482h9.863c-4.789-14.054-16.452-13.508-16.931-13.482z" class="cls-1" transform="translate(-147.279 -398.16)"/></g><g id="그룹_94" transform="translate(242.374 411.519)"><path id="패스_66" d="M362.869 453.823l-.59.6a3.055 3.055 0 00-1.729-.488 2.335 2.335 0 00-2.247 1.345 4.45 4.45 0 00-.388 2.079 3.644 3.644 0 00.29 1.652 2.6 2.6 0 002.456 1.441 3.2 3.2 0 001.785-.5l.584.651a5.269 5.269 0 01-2.544.639 3.713 3.713 0 01-3.755-4.019 3.825 3.825 0 013.836-4.038 4.173 4.173 0 012.302.638z" transform="translate(-356.731 -452.981)"/><path id="패스_67" d="M375.425 458.87a3.493 3.493 0 01.307 1.711 2.926 2.926 0 01-.2 1.232 1.444 1.444 0 01-1.434.86 1.657 1.657 0 01-1.346-.576 3.514 3.514 0 01-.417-1.86 2.77 2.77 0 01.323-1.483 1.652 1.652 0 011.359-.615 1.582 1.582 0 011.408.731zm-4.219 1.517a2.732 2.732 0 002.865 3.03 2.811 2.811 0 001.809-.552 2.623 2.623 0 001.04-2.352 3.236 3.236 0 00-.614-2.111 2.764 2.764 0 00-2.277-.993 2.688 2.688 0 00-2.823 2.978z" transform="translate(-363.936 -455.083)"/><path id="패스_68" d="M385.943 457.626l1.013-.24a1.71 1.71 0 01.238.89 3.194 3.194 0 012.09-.879 1.817 1.817 0 011.629.834 1.464 1.464 0 01.159.66v4.316h-1.057v-3.851c0-.6-.037-.763-.24-.942a1.03 1.03 0 00-.731-.242 3.255 3.255 0 00-1.833.8v4.236H386.2v-4.236a2.165 2.165 0 00-.257-1.346z" transform="translate(-371.272 -455.072)"/><path id="패스_69" d="M403.783 457.661l-.385.663a4.259 4.259 0 00-1.665-.417c-.761 0-1.254.383-1.254.938a.7.7 0 00.19.5 1.273 1.273 0 00.768.322l.877.159c1.2.229 1.772.74 1.772 1.585 0 1.109-1.009 1.862-2.5 1.862a5.559 5.559 0 01-2.436-.571l.4-.664a4.464 4.464 0 002.1.536c.818 0 1.351-.376 1.351-.979 0-.515-.333-.8-1.1-.935l-.825-.149a2.21 2.21 0 01-1.252-.571 1.356 1.356 0 01-.424-.994c0-1.025.968-1.746 2.351-1.746a4.877 4.877 0 012.032.461z" transform="translate(-377.845 -454.98)"/><path id="패스_70" d="M414.52 456.043l-.321.695h-1.4v3.654c0 .628.2.844.85.844a1.666 1.666 0 00.67-.113l.146.57a2.771 2.771 0 01-1.177.229 2.18 2.18 0 01-.863-.16 1.067 1.067 0 01-.64-1.13v-3.893h-.86v-.695h.86v-.066a10.534 10.534 0 01.1-1.19l.013-.148 1.075-.2a12.265 12.265 0 00-.134 1.608z" transform="translate(-383.708 -453.603)"/><path id="패스_71" d="M420.573 457.579l1.037-.239a1.488 1.488 0 01.228.844v.08a2.5 2.5 0 011.863-.948 1.476 1.476 0 01.362.056l-.43.974a.817.817 0 00-.288-.05 1.7 1.7 0 00-1.1.412.954.954 0 00-.4.9v3.56h-1.034v-4.338a2.337 2.337 0 00-.238-1.251z" transform="translate(-388.51 -455.037)"/><path id="패스_72" d="M429.508 457.58l1.023-.171v4.091c0 .559.08.762.388.935a1.715 1.715 0 00.826.217 2.043 2.043 0 001.689-1.025v-4.031l1.023-.149v4.028c0 .649.03.846.159 1.06a.892.892 0 00.3.321l-.672.6a1.488 1.488 0 01-.722-.908 2.625 2.625 0 01-2.1.87 1.835 1.835 0 01-1.74-.815 1.788 1.788 0 01-.172-.845z" transform="translate(-392.958 -455.083)"/><path id="패스_73" d="M447.547 457.981l-.573.615a1.868 1.868 0 00-1.263-.457 1.483 1.483 0 00-1.252.641 3.542 3.542 0 00-.376 1.858c0 1.278.576 1.975 1.643 1.975a1.963 1.963 0 001.424-.613l.57.569a2.791 2.791 0 01-2.02.756 2.585 2.585 0 01-2.119-.857 3.053 3.053 0 01-.641-2.019 2.875 2.875 0 011-2.42 2.62 2.62 0 011.8-.662 2.8 2.8 0 011.807.614z" transform="translate(-399.643 -455.061)"/><path id="패스_74" d="M457.147 456.043l-.32.695h-1.4v3.654c0 .628.2.844.854.844a1.612 1.612 0 00.664-.113l.144.57a2.733 2.733 0 01-1.166.229 2.157 2.157 0 01-.866-.16 1.061 1.061 0 01-.639-1.13v-3.893h-.866v-.695h.866v-.066c0-.291.03-.607.091-1.19l.009-.148 1.081-.2a12.4 12.4 0 00-.132 1.608z" transform="translate(-404.926 -453.603)"/><path id="패스_75" d="M463.29 455.255l1.106-.151v5.81h-1.106zm.556-2.477a.7.7 0 11-.805.7.757.757 0 01.805-.7z" transform="translate(-409.649 -452.778)"/><path id="패스_76" d="M473.781 458.87a3.533 3.533 0 01.3 1.711 3 3 0 01-.2 1.232 1.457 1.457 0 01-1.44.86 1.659 1.659 0 01-1.345-.576 3.487 3.487 0 01-.411-1.86 2.8 2.8 0 01.316-1.483 1.654 1.654 0 011.358-.615 1.6 1.6 0 011.422.731zm-4.224 1.517a2.733 2.733 0 002.865 3.03 2.824 2.824 0 001.811-.552 2.627 2.627 0 001.035-2.352 3.237 3.237 0 00-.607-2.111 2.785 2.785 0 00-2.283-.993 2.689 2.689 0 00-2.821 2.978z" transform="translate(-412.893 -455.083)"/><path id="패스_77" d="M484.295 457.626l1.016-.24a1.737 1.737 0 01.233.89 3.2 3.2 0 012.093-.879 1.823 1.823 0 011.629.834 1.515 1.515 0 01.156.66v4.316h-1.052v-3.851c0-.6-.039-.763-.238-.942a1.048 1.048 0 00-.735-.242 3.264 3.264 0 00-1.838.8v4.236h-1.007v-4.236a2.144 2.144 0 00-.257-1.346z" transform="translate(-420.229 -455.072)"/></g></g></svg>