<svg xmlns="http://www.w3.org/2000/svg" width="125.529" height="34" viewBox="0 0 125.529 34"><defs><style>.cls-1{fill:#fff}</style></defs><g id="header-logo" transform="translate(-126.996 -369.891)"><path id="패스_53" d="M245.3 391.242a12.835 12.835 0 00-2.953.317h-4.6v17.061h5.941v-12.9a1.612 1.612 0 013.224 0v12.9h5.931v-11.688c.002-4.115-3.374-5.69-7.543-5.69z" class="cls-1" transform="translate(-72.929 -14.059)"/><path id="패스_54" d="M191.265 391.242c-4.167 0-7.545 1.575-7.545 5.69v.251h5.931v-1.462a1.612 1.612 0 013.225 0v8.779a1.612 1.612 0 01-3.225 0v-5.122c-3.442-.484-4.939 1.387-4.939 1.387a4.825 4.825 0 00-.708 4.967c1.157 2.311 3.888 3.246 7.1 3.246a13.994 13.994 0 003.243-.35h4.464v-11.696c-.001-4.115-3.378-5.69-7.546-5.69z" class="cls-1" transform="translate(-37.278 -14.059)"/><path id="패스_55" d="M298.662 399.69v3.229h1.531v1.581a1.48 1.48 0 01-1.683 1.609 1.447 1.447 0 01-1.61-1.609v-8.777a1.61 1.61 0 013.221 0v1.462h5.92c0-4.406-3.441-5.941-7.534-5.941-4.165 0-7.544 1.575-7.544 5.69v6.353c0 4.118 3.379 5.69 7.544 5.69s7.544-1.572 7.544-5.69v-3.6z" class="cls-1" transform="translate(-107.972 -14.059)"/><path id="패스_56" d="M457.9 391.242a12.833 12.833 0 00-2.953.317h-4.6v17.061h5.94v-12.9a1.612 1.612 0 013.224 0v12.9h5.935v-11.688c.002-4.115-3.378-5.69-7.546-5.69z" class="cls-1" transform="translate(-212.924 -14.059)"/><g id="그룹_92" transform="translate(201.022 369.891)"><path id="패스_57" d="M411.473 381.935v-6.355c0-4.116-3.38-5.689-7.545-5.689s-7.546 1.573-7.546 5.689v.251h5.934v-1.46a1.611 1.611 0 113.222 0v8.774c0 .062 0 .123-.006.178 2.775-.736 4.883-1.122 5.941-1.293z" class="cls-1" transform="translate(-378.41 -369.891)"/><path id="패스_58" d="M402.1 398.673v-5.119c-3.445-.486-4.938 1.386-4.938 1.386a4.493 4.493 0 00.416 6.429c1.693-.651 3.3-1.2 4.8-1.666a1.807 1.807 0 01-.278-1.03z" class="cls-1" transform="translate(-378.196 -385.419)"/><path id="패스_59" d="M349.693 427.519V426.2h-5.935v.1a5.076 5.076 0 003.745 5.131 60.407 60.407 0 013.384-2.344 1.426 1.426 0 01-1.194-1.568z" class="cls-1" transform="translate(-343.757 -406.971)"/><path id="패스_60" d="M370.526 413.418v5.677a2.15 2.15 0 01-.022.34 67.587 67.587 0 015.719-3.013c-.458-1.357-1.801-3.155-5.697-3.004z" class="cls-1" transform="translate(-361.369 -398.547)"/><path id="패스_61" d="M349.692 401.5v-5.775a1.611 1.611 0 013.221 0v1.462h5.932v-.251c0-4.115-3.379-5.69-7.544-5.69s-7.544 1.575-7.544 5.69c0-.004-.185 5.007 5.935 4.564z" class="cls-1" transform="translate(-343.756 -383.95)"/></g><path id="패스_62" d="M133.34 390.379v-9.2H127v9.2z" class="cls-1" transform="translate(0 -7.433)"/><path id="패스_63" d="M127 415.225v9.195h6.344v-9.195z" class="cls-1" transform="translate(0 -29.851)"/><g id="그룹_93" transform="translate(133.923 373.746)"><path id="패스_64" d="M158.829 381.18h-6.707l-4.787 9.173c.693.075 7.584.596 11.494-9.173z" class="cls-1" transform="translate(-147.316 -381.18)"/><path id="패스_65" d="M147.279 415.3l4.806 9.168h6.707c-3.257-9.559-11.192-9.188-11.513-9.168z" class="cls-1" transform="translate(-147.279 -403.642)"/></g><g id="그룹_94" transform="translate(205.454 398.198)"><path id="패스_66" d="M360.905 453.619l-.4.41a2.077 2.077 0 00-1.176-.332 1.588 1.588 0 00-1.528.915 3.026 3.026 0 00-.264 1.413 2.477 2.477 0 00.2 1.123 1.765 1.765 0 001.67.98 2.178 2.178 0 001.214-.342l.4.443a3.583 3.583 0 01-1.73.435 2.525 2.525 0 01-2.553-2.733 2.6 2.6 0 012.608-2.746 2.838 2.838 0 011.559.434z" class="cls-1" transform="translate(-356.731 -453.046)"/><path id="패스_67" d="M374.075 458.4a2.375 2.375 0 01.209 1.164 1.991 1.991 0 01-.136.838.982.982 0 01-.975.585 1.127 1.127 0 01-.916-.392 2.39 2.39 0 01-.283-1.265 1.882 1.882 0 01.22-1.009 1.123 1.123 0 01.924-.418 1.076 1.076 0 01.957.497zm-2.869 1.031a1.858 1.858 0 001.948 2.06 1.911 1.911 0 001.23-.376 1.784 1.784 0 00.707-1.6 2.2 2.2 0 00-.417-1.435 1.88 1.88 0 00-1.548-.675 1.828 1.828 0 00-1.92 2.029z" class="cls-1" transform="translate(-366.263 -455.827)"/><path id="패스_68" d="M385.943 457.549l.689-.163a1.163 1.163 0 01.162.606 2.172 2.172 0 011.421-.6 1.236 1.236 0 011.108.567 1 1 0 01.108.449v2.935h-.719v-2.618c0-.409-.025-.519-.163-.64a.7.7 0 00-.5-.165 2.214 2.214 0 00-1.246.543v2.88h-.689v-2.88a1.472 1.472 0 00-.171-.914z" class="cls-1" transform="translate(-375.967 -455.812)"/><path id="패스_69" d="M402.3 457.514l-.262.451a2.9 2.9 0 00-1.132-.284c-.518 0-.853.26-.853.638a.476.476 0 00.129.341.866.866 0 00.522.219l.6.108c.818.156 1.205.5 1.205 1.078 0 .754-.686 1.266-1.7 1.266a3.78 3.78 0 01-1.656-.388l.271-.451a3.035 3.035 0 001.43.365c.556 0 .919-.255.919-.666 0-.35-.227-.545-.745-.636l-.561-.1a1.5 1.5 0 01-.851-.388.923.923 0 01-.288-.676c0-.7.658-1.188 1.6-1.188a3.317 3.317 0 011.372.311z" class="cls-1" transform="translate(-384.662 -455.691)"/><path id="패스_70" d="M413.37 455.528l-.219.472h-.95v2.485c0 .427.137.574.578.574a1.133 1.133 0 00.456-.077l.1.388a1.884 1.884 0 01-.8.155 1.482 1.482 0 01-.587-.109.725.725 0 01-.435-.768V456h-.585v-.472h.585v-.045a7.174 7.174 0 01.066-.809l.008-.1.731-.139a8.344 8.344 0 00-.091 1.093z" class="cls-1" transform="translate(-392.418 -453.869)"/><path id="패스_71" d="M420.573 457.5l.7-.162a1.012 1.012 0 01.155.574v.055a1.7 1.7 0 011.267-.644 1 1 0 01.246.038l-.293.662a.557.557 0 00-.2-.034 1.158 1.158 0 00-.75.28.648.648 0 00-.269.615v2.416h-.7v-2.95a1.589 1.589 0 00-.156-.85z" class="cls-1" transform="translate(-398.77 -455.767)"/><path id="패스_72" d="M429.508 457.525l.7-.116v2.779c0 .38.054.518.264.636a1.166 1.166 0 00.561.148 1.389 1.389 0 001.149-.7v-2.741l.7-.1v2.739c0 .442.02.575.108.721a.606.606 0 00.2.218l-.457.411a1.012 1.012 0 01-.491-.617 1.785 1.785 0 01-1.429.591 1.248 1.248 0 01-1.183-.554 1.215 1.215 0 01-.117-.574z" class="cls-1" transform="translate(-404.654 -455.827)"/><path id="패스_73" d="M446.073 457.784l-.389.418a1.27 1.27 0 00-.859-.311 1.009 1.009 0 00-.851.436 2.408 2.408 0 00-.255 1.263c0 .869.391 1.343 1.117 1.343a1.335 1.335 0 00.968-.418l.387.387a1.9 1.9 0 01-1.374.514 1.758 1.758 0 01-1.441-.583 2.076 2.076 0 01-.436-1.373 1.955 1.955 0 01.682-1.646 1.782 1.782 0 011.221-.45 1.906 1.906 0 011.23.42z" class="cls-1" transform="translate(-413.498 -455.798)"/><path id="패스_74" d="M456 455.528l-.217.472h-.953v2.485c0 .427.135.574.581.574a1.1 1.1 0 00.452-.077l.1.388a1.859 1.859 0 01-.793.155 1.466 1.466 0 01-.589-.109.721.721 0 01-.434-.768V456h-.589v-.472h.589v-.045a8.113 8.113 0 01.062-.809l.006-.1.735-.139a8.441 8.441 0 00-.09 1.093z" class="cls-1" transform="translate(-420.486 -453.869)"/><path id="패스_75" d="M463.21 454.462l.752-.1v3.951h-.752zm.378-1.684a.478.478 0 11-.547.479.515.515 0 01.547-.479z" class="cls-1" transform="translate(-426.734 -452.778)"/><path id="패스_76" d="M472.429 458.4a2.4 2.4 0 01.207 1.164 2.036 2.036 0 01-.134.838.991.991 0 01-.979.585 1.129 1.129 0 01-.915-.392 2.372 2.372 0 01-.279-1.265 1.9 1.9 0 01.215-1.009 1.125 1.125 0 01.923-.418 1.084 1.084 0 01.962.497zm-2.872 1.031a1.858 1.858 0 001.948 2.06 1.921 1.921 0 001.232-.376 1.787 1.787 0 00.7-1.6 2.2 2.2 0 00-.413-1.435 1.894 1.894 0 00-1.553-.675 1.828 1.828 0 00-1.914 2.029z" class="cls-1" transform="translate(-431.025 -455.827)"/><path id="패스_77" d="M484.295 457.549l.691-.163a1.181 1.181 0 01.158.606 2.177 2.177 0 011.423-.6 1.239 1.239 0 011.108.567 1.031 1.031 0 01.106.449v2.935h-.715v-2.618c0-.409-.026-.519-.162-.64a.713.713 0 00-.5-.165 2.219 2.219 0 00-1.25.543v2.88h-.685v-2.88a1.458 1.458 0 00-.174-.914z" class="cls-1" transform="translate(-440.73 -455.812)"/></g></g></svg>