<svg width="20" height="13" viewBox="0 0 20 13" fill="none" xmlns="http://www.w3.org/2000/svg"><path d="M4.674 6.525h14.213l-5.313 5.312a.326.326 0 00.46.461L19.9 6.43a.326.326 0 000-.46L14.03.098a.326.326 0 00-.468.453l.008.008 5.317 5.313H4.674a.326.326 0 100 .652z" fill="#655238"/><path d="M13.8.003a.326.326 0 01.23.1l5.87 5.865a.326.326 0 010 .461l-5.865 5.87a.326.326 0 01-.461-.462L19.213 6.2 13.573.56a.326.326 0 01.23-.557H13.8z" fill="#655238"/><path d="M.326 5.873h19.348a.326.326 0 110 .652H.326a.326.326 0 010-.652z" fill="#655238"/></svg>