<svg xmlns="http://www.w3.org/2000/svg" width="280.69" height="50" viewBox="0 0 280.69 50"><defs><style>.cls-1{fill:#00509f}.cls-3{fill:#161615}</style></defs><g id="logo-company-02" transform="translate(-242.484 -476.151)"><g id="그룹_16987" transform="translate(264.692 497.622)"><g id="그룹_16985"><path id="패스_38137" d="M262.017 508.441a7.55 7.55 0 01.19-.083l-.042-.21c-.015.058-.195.052-.148.293z" class="cls-1" transform="translate(-254.693 -481.238)"/><path id="패스_38138" d="M261.147 509.279c.2-.088.535-.254.75-.328-.091-.038.106-.209.147-.292a3.4 3.4 0 00-.4.059c.275-.384-.374-.02-.417-.047a4.519 4.519 0 01-.292.588c.35-.181.097-.036.212.02z" class="cls-1" transform="translate(-255.242 -481.037)"/><path id="패스_38139" d="M267.55 504.744l-.236.129a.539.539 0 01-.029-.05c-.283.133-.132.166-.324.245.044.071.168.16.148.251.271-.13.553-.342.824-.454a.566.566 0 01.029.053l.234-.133.03.05s.324-.21.088-.115l.322-.245c-.018-.03-.112-.1-.089-.151-.239.115-.024.042-.147.015a9.011 9.011 0 01-.821.455z" class="cls-1" transform="translate(-252.157 -483.196)"/><path id="패스_38140" d="M268.192 502.98c-.169.107-.494.219-.44.311 0 0 .437-.243.47-.26-.01-.018-.022-.031-.03-.051z" class="cls-1" transform="translate(-251.756 -483.885)"/><path id="패스_38141" d="M266.478 505.3l.06.1.292-.292c.053-.2-.352.192-.352.192z" class="cls-1" transform="translate(-252.405 -482.823)"/><path id="패스_38142" d="M266.006 506.556c.042-.021.082-.044.118-.065l-.057-.1c-.004.029-.129.05-.061.165z" class="cls-1" transform="translate(-252.657 -482.138)"/><path id="패스_38143" d="M263.805 507.472a1.762 1.762 0 01-.116.33c.213-.135.06-.029.148-.014.129-.071.333-.2.469-.26-.068-.009.042-.121.059-.169-.038 0-.207.065-.266.083.133-.227-.259.036-.294.03z" class="cls-1" transform="translate(-253.833 -481.647)"/><path id="패스_38144" d="M263.19 508.081l.236-.133-.03-.051c-.15.109-.263.082-.206.184z" class="cls-1" transform="translate(-254.096 -481.367)"/><path id="패스_38145" d="M264.376 507.285c.041-.023.079-.047.116-.067l-.061-.1c.001.029-.124.049-.055.167z" class="cls-1" transform="translate(-253.492 -481.766)"/><path id="패스_38146" d="M264.238 493.2l-.236.13c-.011.053.066.112.091.151l.2-.18z" class="cls-1" transform="translate(-253.673 -488.894)"/><path id="패스_38147" d="M268.134 504.907c-.051.142.18-.044.266-.083 0-.001-.226-.032-.266.083z" class="cls-1" transform="translate(-251.561 -482.943)"/><path id="패스_38148" d="M268.015 505.6l-.029-.05c-.169.1-.821.454-.821.454-.049.139.709-.324.85-.404z" class="cls-1" transform="translate(-252.054 -482.567)"/><path id="패스_38149" d="M265.092 507.7c.086.056-.13.16-.175.231.051.014.181-.012.177.038.3-.139.169-.165.383-.145-.305.216-.3.18-.558.375a1 1 0 01.177.036l.236-.13.029.05c.012-.029.525-.292.588-.325-.032-.053-.189-.171-.15-.254l-.118.068c-.124-.047-.076-.056-.207-.088-.035.02-.076.044-.116.065-.164-.009-.01-.021-.266.079z" class="cls-1" transform="translate(-253.204 -481.54)"/><path id="패스_38150" d="M264.375 507.784c-.056.153.178-.042.263-.077 0 0-.224-.035-.263.077z" class="cls-1" transform="translate(-253.486 -481.467)"/><path id="패스_38151" d="M264.984 508.07l-.236.13c-.157-.08-.579.127-.351.2.13.041.033.018.265-.08-.038.16.065-.011.148-.014.209 0 .065.014.086-.116.037-.241.226.11.088-.12z" class="cls-1" transform="translate(-253.504 -481.278)"/><path id="패스_38152" d="M263.745 508.977c-.008.035-.135.044-.057.165.054.1.2-.059.383-.144-.027-.045-.144-.133-.121-.2a1.4 1.4 0 01-.263.077z" class="cls-1" transform="translate(-253.847 -480.906)"/><path id="패스_38153" d="M265.672 494.926c.041-.024.059-.038.1-.059.062-.086.05-.047.08-.127l.175-.077c-.057-.009-.2.006-.175-.035-.154-.027-.141.209-.148.014.041-.023.077-.041.118-.065a.541.541 0 01-.03-.05l.188-.1c-.1-.065-.186-.127-.185-.148l.024-.009a1.556 1.556 0 01.354.116c.041.017.055.129.091.15l.116-.065a.122.122 0 01-.027.216l.06.1c-.039.024-.08.044-.118.065.032.2.213.2.325.29.041-.024.077-.042.118-.065.067.041.041.168.118.2.048-.026.44-.262.469-.259-.082.15.2-.054.266-.08-.024-.039-.1-.1-.091-.151l.236-.13.059.1c-.027.02-.2.18-.2.18.015.133.139.015.177.035s.127.151.118.2c-.018.106-.248.015-.088.112.041-.02.077-.041.118-.065.139.033.2-.017.324.021.067-.044.284-.145.352-.2.186-.13-.348.068.206-.18.009.018.02.035.029.05.148-.044.2-.139.352-.2a1.527 1.527 0 00.295-.029c.024.138.213.206.209.354-.036.021-.077.041-.118.065-.03.086.011.133-.027.216-.012.023-.2.156-.206.18-.06.177.076.209.06.369a1.796 1.796 0 00-.116.065l.059.1-.116.068a.511.511 0 00.207.352c.041-.024.077-.042.118-.065l.059.1c.041-.021.077-.044.118-.065.088.05.023.236.15.251.039-.021.077-.041.116-.065l.325.024c.1-.036.269-.183.351-.2l.06.1a2.062 2.062 0 00-.118.065c.009.015.02.03.029.047s.334-.183.354-.194c.042.011.05.023.045.035a.68.68 0 01.1-.047c.1.109-.088.13-.027.212l.115-.062a.775.775 0 01.091.151c.041-.024.079-.044.118-.065a4.09 4.09 0 01.537.907l-.236.13a1.161 1.161 0 00.119.2c.039-.023.077-.041.116-.065.1.089.38.222.4.352-.038.023.113.044.074.068l.059.1-.206.18c-.021.08.109.136.119.2-.036.018-.076.041-.118.065a1.657 1.657 0 01.209.351c-.036.021-.077.045-.118.065.032.054.051.175.12.2l.221-.1a.714.714 0 01.119.2c-.036.017-.076.041-.116.064.047.246.1.3.151.52-.038.018-.077.042-.118.062.063.1.378-.094.383.124-.036.021-.077.042-.116.062l.059.1-.116.062a9.349 9.349 0 01-.145.283l-.236.13c-.014.062.351-.065.384.121l-.206.183c-.029.056.014.234 0 .263-.036.024-.077.044-.116.068 0 .1.233-.041.293-.032.009.017.021.035.03.053a1.342 1.342 0 00-.118.065l.059.1-.2.18.059.1c-.036.02-.076.044-.117.065 0 .079.135.121.12.2-.038.024-.077.045-.118.068.033.192.266.31.3.5l-.206.181c-.024.115.13.221.178.3-.036.02-.077.041-.116.065.017.091.168.144.148.248l-.292.3.059.1c-.036.021-.076.045-.116.065.029.051.133.136.118.2l-.2.18c.041.352.334.387.343.641l-.322.245c-.035.065.088.107.088.154l-.115.062c-.032.124.006.162 0 .269-.038.02-.079.041-.118.065 0 .076.139.118.118.2l-.322.245c-.041.175.166.257.091.42-.035.02-.076.041-.116.065-.017.038-.145.28-.145.28-.127.1-.24.1-.354.2a.568.568 0 00.032.05c-.119.107-.1.08-.206.181.021.035.1.1.089.153l-.206.18c0 .039.074.124.089.151l.116-.065c.107.13-.057.165-.057.165 0 .042.088.112.091.151l-.118.068c0 .05.115.082.088.147l-.233.133.059.1-.292.3c-.029.068.088.1.089.151-.036.02-.077.044-.118.065l.06.1-.293.295.06.1-.236.127.06.1c-.038.024-.077.044-.116.068-.015.151.039.109 0 .266-.036.02-.077.041-.116.065 0 .077.129.121.119.2l-.118.065.059.1a2.507 2.507 0 01-.118.065l.06.1c-.036.018-.077.042-.118.065 0 .048.121.089.089.148a1.239 1.239 0 01-.116.065c-.076.213-.186.174-.293.3l.03.05a2.088 2.088 0 01-.206.181c.017.026.112.106.089.15a1.849 1.849 0 01-.2.18.555.555 0 00.03.05l-.236.13a1.023 1.023 0 00-.115.334 2.125 2.125 0 00-.118.065l.032.05c-.115.1-.419.234-.441.31-.056.169.269.245.237.405-.009.035-.272.2-.322.245s-.041.118-.059.165c-.035.021-.077.042-.115.065-.035.065.086.1.088.151a2.088 2.088 0 01-.118.065c-.018.133-.006.118-.026.216l-.119.065a1.37 1.37 0 00-.177-.036c-.189.08-.2.18-.2.18-.333.236-.553.21-.733.34.009.018.02.032.029.053a1.563 1.563 0 00-.116.065 2.5 2.5 0 01-.263.345c-.02.071.092.139.116.2-.024 0-.051.024-.085.121.009.015.02.033.029.051.059-.033.425-.254.47-.26a1.562 1.562 0 01.354.071c.011-.03.448-.225.174-.231-.061.177-.147.015-.147.015l.236-.133c.014.124.172.18.178.3-.038.021-.077.045-.118.065l.06.1c-.327.168-.621.345-.94.522-.124-.023.1-.112-.147.012-.029-.05-.053-.171-.118-.2-.038.021-.079.045-.118.065l-.06-.1s-.119.03-.147.015c0 .015-.334.186-.352.2-.017.127.228.171.178.3a3.815 3.815 0 01-.352.2c.194.053-.6.316-.7.39-.065.047-.026.212-.029.215l-.322.245c.08.065.169-.026.295-.029-.045.115.191.141.148.254 0 .006-.337.189-.352.2-.056.159-.011.135-.145.28a.969.969 0 01.177.036l.234-.13c.015.262-.466.519-.466.525a.18.18 0 00.029.05l.234-.129c.02-.006.151.041.177.035l.265-.08c-.014.045-.124.163-.059.169-.308.135-.2.18-.2.18.039-.024.077-.045.118-.068.055.094.318-.118.5-.21a.365.365 0 01-.03-.05l.118-.062c-.136-.233.082.106-.147.012a.384.384 0 01-.178-.3c.035-.237.225.118.088-.116.127-.079.331-.186.469-.26l-.03-.05-.234.13c-.032-.05-.059-.165-.12-.2l.116-.065a.335.335 0 00-.03-.05c.325-.186.755-.378 1.058-.585l.029-.218c.2-.13.07-.03.147-.015.065-.035.281-.162.352-.2 0 0 .068-.239.174-.23a2.174 2.174 0 00.442-.044 1.62 1.62 0 00.086-.384l.234-.13c.03.009.177.035.177.035a13.941 13.941 0 001.291-.714c.054.017.07.118.089.15.044-.009.248-.082.266-.077l.059.1.116-.062c.051.021.07.112.089.15l.234-.129-.03-.054a.636.636 0 01.059-.071V515c.041-.024.076-.044.118-.065a.953.953 0 00.057-.168c.041-.021.077-.042.116-.065.018-.083-.127-.059-.089-.154l.207-.177c.03-.062 0-.139.026-.216-.035.021-.076.042-.116.065a.679.679 0 00-.091-.15c-.233.115-.03.038-.145.012a7.113 7.113 0 01-.7.392c-.008-.121-.2-.165-.178-.3.039-.021.077-.041.116-.065.033-.1.06-.071.057-.165a4.981 4.981 0 00.44-.31l.03.05c.044-.009.248-.083.265-.08l.059.1.234-.13c.038-.086-.141-.116-.118-.2l.41-.36c.083 0 .106.053.177.035l.234-.13.03.05c.3-.112.479-.274.646-.224.042-.024.077-.044.118-.065s.077-.042.118-.065l-.059-.1c.065-.038.286-.15.351-.194-.02.014.085.141.091.15-.216.136-.482.266-.7.39.139.018-.5.41-.383.145-.125.1-.228.1-.352.2a.545.545 0 00-.057.165c-.092.053-.263.133-.354.2.033.059.18.171.151.251a12.239 12.239 0 011.291-.715l.059.1c.041-.012.248-.083.265-.08l.059.1.234-.13c.333.077.142-.071.5-.209-.089-.018-.077-.039-.177-.036l-.263.08c-.035-.015-.074-.121-.091-.151l.116-.062-.059-.1c.042-.024.077-.041.118-.065l-.029-.05c-.038.021-.077.041-.118.065.032-.083-.03-.225-.032-.319a.538.538 0 01.1-.059c-.014 0-.03-.006-.012-.056.036-.012.5-.21.5-.21l-.059-.1.234-.13-.03-.051a1.492 1.492 0 00.206-.18c-.056-.047-.062-.153-.119-.2-.036.02-.077.041-.116.064-.05-.082-.148-.144-.148-.253l.115-.065c.021-.13-.014-.1.03-.216l.233-.13c-.029-.109-.118.024-.265.08-.153-.1-.151-.29-.354-.337l-.234.13a2 2 0 00-.207-.086c-.036.021-.077.042-.118.065-.148-.091-.02-.224-.032-.319.041-.02.077-.044.118-.065l-.059-.1s.315-.174.352-.2c.017.03.032.145.088.151-.187.017-.086.115-.086.115-.236.1-.07.056-.088.118.142-.065.325-.2.469-.263.308-.13-.222.225.265-.079l-.03-.051.234-.13c.006-.017.054-.159.059-.165.249-.2.484-.168.556-.375.041-.024.077-.044.118-.065l.03.05c.032-.012.5-.212.5-.212.109 0 .079.115.207.088a1.056 1.056 0 00-.263.346c-.119.047-.243.15-.352.2l-.03-.051-.236.133a.479.479 0 00-.029-.05c-.251.106-.451.275-.7.39.145-.027.021.021.265-.083l.059.1.236-.133.175.035c.145-.05.21-.153.352-.2l-.059-.1a4.414 4.414 0 00.469-.26l.059-.165c.228-.157.632-.287.821-.455l-.059-.1.29-.3c.032-.186-.062.05-.147.018-.132-.05.053-.136.057-.169l-.059-.1s.405-.2.735-.34c0-.029-.269-.017-.325-.02a4.626 4.626 0 01.44-.31c.015-.027-.079-.133-.089-.151.039-.029.064-.047.083-.059-.006-.006-.008-.021 0-.056l.234-.13c.021-.065-.132-.086-.091-.151.071-.106.207-.124.324-.248l-.059-.1.234-.13c0-.018.054-.162.057-.165l.236-.13-.06-.1c.041-.023-.041.036 0 .012 0-.018.054-.159.057-.165l.236-.13a1.883 1.883 0 010-.266l.206-.183-.059-.1.116-.068-.059-.1a1.64 1.64 0 00.116-.065c.021-.065-.089-.091-.088-.15.039-.021.183.029.224.008l-.059-.1c.039-.021.077-.041.116-.065l-.06-.1c.042-.021.077-.042.118-.065l-.059-.1c.041-.02.077-.044.118-.065l-.06-.1c.042-.024.079-.041.118-.065l-.06-.1c.042-.024.079-.042.119-.065l-.06-.1.118-.068c.014-.062-.091-.094-.089-.147l.116-.068-.059-.1a1.282 1.282 0 00.116-.065c0-.035-.1-.106-.089-.15.041-.021.077-.042.118-.065l-.059-.1c.039-.023.077-.041.116-.065l-.059-.1c.041-.024.077-.044.118-.065 0-.074-.138-.118-.119-.2l.116-.062.059-.183c.039-.021.077-.038.118-.062l-.06-.1.116-.062-.059-.1c.041-.02.079-.041.118-.062l-.059-.1c.039-.024.077-.041.116-.065.029-.148-.113-.151-.032-.316l.1-.254c.018-.086-.109-.059-.089-.151a1.266 1.266 0 00.116-.065l-.059-.1c.041-.021.077-.041.118-.065.015-.2-.154-.3-.151-.517.041-.023.077-.044.118-.065.009-.15-.1-.2-.062-.366l.118-.068-.059-.1c.041-.024.076-.042.118-.065-.006-.124-.193-.169-.18-.3.041-.024.077-.045.118-.065.03-.089-.109-.062-.089-.151l.2-.18c.027-.062-.033-.189 0-.269.041-.023.077-.041.118-.065 0-.177-.23-.289-.269-.455.041-.02.08-.041.118-.062-.024-.106-.127-.141-.148-.251l.116-.068a1.5 1.5 0 00-.15-.251c.041-.02.079-.044.119-.065a6.108 6.108 0 00-.183-.764c.041-.021.077-.042.118-.065-.153-.26-.289-.768-.44-1.04.029.021.1.053.136.08a1.831 1.831 0 00-.209-.2 3.851 3.851 0 00-.624-1.267c-1.237-2.353-4.379-3.3-4.379-3.3-11.454-3.3-17.742 7.43-17.742 7.43s-.048.162.059.18a.413.413 0 00.233-.053 22.408 22.408 0 018.155-3.609zm1.205 22l-.234.133c-.059-.1.054-.074.2-.185a.451.451 0 00.034.057zm.936-.786c.059-.018.227-.08.265-.083-.017.048-.127.16-.057.169-.138.065-.34.189-.469.26-.088-.015.067-.121-.147.014a2 2 0 00.115-.33c.034.011.428-.252.293-.025zm.735-.342l-.118.067c-.068-.118.056-.138.059-.168zm2.466-1.1a2.507 2.507 0 01-.118.065c-.068-.115.057-.136.059-.165zm.667-1.775l-.06-.1s.407-.4.352-.2zm2.256-1.45c-.021.053.074.121.091.151l-.322.245c.236-.1-.088.115-.088.115-.011-.018-.02-.032-.029-.05l-.236.133a.252.252 0 00-.03-.053c-.269.112-.552.324-.821.454.018-.091-.106-.18-.15-.251.192-.079.041-.112.324-.245a.565.565 0 00.03.05l.234-.129.03.05a9.2 9.2 0 00.821-.455c.123.033-.091.106.146-.009zm.048-2.032l.029.051-.47.26c-.053-.086.269-.198.441-.305z" class="cls-1" transform="translate(-257.171 -490.351)"/><path id="패스_38154" d="M272.359 493.922l.024.032c.017-.006-.001-.017-.024-.032z" class="cls-1" transform="translate(-249.394 -488.523)"/></g><g id="그룹_16986"><path id="패스_38155" d="M262.017 508.441a7.55 7.55 0 01.19-.083l-.042-.21c-.015.058-.195.052-.148.293z" class="cls-1" transform="translate(-254.693 -481.238)"/><path id="패스_38156" d="M261.147 509.279c.2-.088.535-.254.75-.328-.091-.038.106-.209.147-.292a3.4 3.4 0 00-.4.059c.275-.384-.374-.02-.417-.047a4.519 4.519 0 01-.292.588c.35-.181.097-.036.212.02z" class="cls-1" transform="translate(-255.242 -481.037)"/><path id="패스_38157" d="M267.55 504.744l-.236.129a.539.539 0 01-.029-.05c-.283.133-.132.166-.324.245.044.071.168.16.148.251.271-.13.553-.342.824-.454a.566.566 0 01.029.053l.234-.133.03.05s.324-.21.088-.115l.322-.245c-.018-.03-.112-.1-.089-.151-.239.115-.024.042-.147.015a9.011 9.011 0 01-.821.455z" class="cls-1" transform="translate(-252.157 -483.196)"/><path id="패스_38158" d="M268.192 502.98c-.169.107-.494.219-.44.311 0 0 .437-.243.47-.26-.01-.018-.022-.031-.03-.051z" class="cls-1" transform="translate(-251.756 -483.885)"/><path id="패스_38159" d="M266.478 505.3l.06.1.292-.292c.053-.2-.352.192-.352.192z" class="cls-1" transform="translate(-252.405 -482.823)"/><path id="패스_38160" d="M266.006 506.556c.042-.021.082-.044.118-.065l-.057-.1c-.004.029-.129.05-.061.165z" class="cls-1" transform="translate(-252.657 -482.138)"/><path id="패스_38161" d="M263.805 507.472a1.762 1.762 0 01-.116.33c.213-.135.06-.029.148-.014.129-.071.333-.2.469-.26-.068-.009.042-.121.059-.169-.038 0-.207.065-.266.083.133-.227-.259.036-.294.03z" class="cls-1" transform="translate(-253.833 -481.647)"/><path id="패스_38162" d="M263.19 508.081l.236-.133-.03-.051c-.15.109-.263.082-.206.184z" class="cls-1" transform="translate(-254.096 -481.367)"/><path id="패스_38163" d="M264.376 507.285c.041-.023.079-.047.116-.067l-.061-.1c.001.029-.124.049-.055.167z" class="cls-1" transform="translate(-253.492 -481.766)"/><path id="패스_38164" d="M264.238 493.2l-.236.13c-.011.053.066.112.091.151l.2-.18z" class="cls-1" transform="translate(-253.673 -488.894)"/><path id="패스_38165" d="M268.134 504.907c-.051.142.18-.044.266-.083 0-.001-.226-.032-.266.083z" class="cls-1" transform="translate(-251.561 -482.943)"/><path id="패스_38166" d="M268.015 505.6l-.029-.05c-.169.1-.821.454-.821.454-.049.139.709-.324.85-.404z" class="cls-1" transform="translate(-252.054 -482.567)"/><path id="패스_38167" d="M265.092 507.7c.086.056-.13.16-.175.231.051.014.181-.012.177.038.3-.139.169-.165.383-.145-.305.216-.3.18-.558.375a1 1 0 01.177.036l.236-.13.029.05c.012-.029.525-.292.588-.325-.032-.053-.189-.171-.15-.254l-.118.068c-.124-.047-.076-.056-.207-.088-.035.02-.076.044-.116.065-.164-.009-.01-.021-.266.079z" class="cls-1" transform="translate(-253.204 -481.54)"/><path id="패스_38168" d="M264.375 507.784c-.056.153.178-.042.263-.077 0 0-.224-.035-.263.077z" class="cls-1" transform="translate(-253.486 -481.467)"/><path id="패스_38169" d="M264.984 508.07l-.236.13c-.157-.08-.579.127-.351.2.13.041.033.018.265-.08-.038.16.065-.011.148-.014.209 0 .065.014.086-.116.037-.241.226.11.088-.12z" class="cls-1" transform="translate(-253.504 -481.278)"/><path id="패스_38170" d="M263.745 508.977c-.008.035-.135.044-.057.165.054.1.2-.059.383-.144-.027-.045-.144-.133-.121-.2a1.4 1.4 0 01-.263.077z" class="cls-1" transform="translate(-253.847 -480.906)"/><path id="패스_38171" d="M265.672 494.926c.041-.024.059-.038.1-.059.062-.086.05-.047.08-.127l.175-.077c-.057-.009-.2.006-.175-.035-.154-.027-.141.209-.148.014.041-.023.077-.041.118-.065a.541.541 0 01-.03-.05l.188-.1c-.1-.065-.186-.127-.185-.148l.024-.009a1.556 1.556 0 01.354.116c.041.017.055.129.091.15l.116-.065a.122.122 0 01-.027.216l.06.1c-.039.024-.08.044-.118.065.032.2.213.2.325.29.041-.024.077-.042.118-.065.067.041.041.168.118.2.048-.026.44-.262.469-.259-.082.15.2-.054.266-.08-.024-.039-.1-.1-.091-.151l.236-.13.059.1c-.027.02-.2.18-.2.18.015.133.139.015.177.035s.127.151.118.2c-.018.106-.248.015-.088.112.041-.02.077-.041.118-.065.139.033.2-.017.324.021.067-.044.284-.145.352-.2.186-.13-.348.068.206-.18.009.018.02.035.029.05.148-.044.2-.139.352-.2a1.527 1.527 0 00.295-.029c.024.138.213.206.209.354-.036.021-.077.041-.118.065-.03.086.011.133-.027.216-.012.023-.2.156-.206.18-.06.177.076.209.06.369a1.796 1.796 0 00-.116.065l.059.1-.116.068a.511.511 0 00.207.352c.041-.024.077-.042.118-.065l.059.1c.041-.021.077-.044.118-.065.088.05.023.236.15.251.039-.021.077-.041.116-.065l.325.024c.1-.036.269-.183.351-.2l.06.1a2.062 2.062 0 00-.118.065c.009.015.02.03.029.047s.334-.183.354-.194c.042.011.05.023.045.035a.68.68 0 01.1-.047c.1.109-.088.13-.027.212l.115-.062a.775.775 0 01.091.151c.041-.024.079-.044.118-.065a4.09 4.09 0 01.537.907l-.236.13a1.161 1.161 0 00.119.2c.039-.023.077-.041.116-.065.1.089.38.222.4.352-.038.023.113.044.074.068l.059.1-.206.18c-.021.08.109.136.119.2-.036.018-.076.041-.118.065a1.657 1.657 0 01.209.351c-.036.021-.077.045-.118.065.032.054.051.175.12.2l.221-.1a.714.714 0 01.119.2c-.036.017-.076.041-.116.064.047.246.1.3.151.52-.038.018-.077.042-.118.062.063.1.378-.094.383.124-.036.021-.077.042-.116.062l.059.1-.116.062a9.349 9.349 0 01-.145.283l-.236.13c-.014.062.351-.065.384.121l-.206.183c-.029.056.014.234 0 .263-.036.024-.077.044-.116.068 0 .1.233-.041.293-.032.009.017.021.035.03.053a1.342 1.342 0 00-.118.065l.059.1-.2.18.059.1c-.036.02-.076.044-.117.065 0 .079.135.121.12.2-.038.024-.077.045-.118.068.033.192.266.31.3.5l-.206.181c-.024.115.13.221.178.3-.036.02-.077.041-.116.065.017.091.168.144.148.248l-.292.3.059.1c-.036.021-.076.045-.116.065.029.051.133.136.118.2l-.2.18c.041.352.334.387.343.641l-.322.245c-.035.065.088.107.088.154l-.115.062c-.032.124.006.162 0 .269-.038.02-.079.041-.118.065 0 .076.139.118.118.2l-.322.245c-.041.175.166.257.091.42-.035.02-.076.041-.116.065-.017.038-.145.28-.145.28-.127.1-.24.1-.354.2a.568.568 0 00.032.05c-.119.107-.1.08-.206.181.021.035.1.1.089.153l-.206.18c0 .039.074.124.089.151l.116-.065c.107.13-.057.165-.057.165 0 .042.088.112.091.151l-.118.068c0 .05.115.082.088.147l-.233.133.059.1-.292.3c-.029.068.088.1.089.151-.036.02-.077.044-.118.065l.06.1-.293.295.06.1-.236.127.06.1c-.038.024-.077.044-.116.068-.015.151.039.109 0 .266-.036.02-.077.041-.116.065 0 .077.129.121.119.2l-.118.065.059.1a2.507 2.507 0 01-.118.065l.06.1c-.036.018-.077.042-.118.065 0 .048.121.089.089.148a1.239 1.239 0 01-.116.065c-.076.213-.186.174-.293.3l.03.05a2.088 2.088 0 01-.206.181c.017.026.112.106.089.15a1.849 1.849 0 01-.2.18.555.555 0 00.03.05l-.236.13a1.023 1.023 0 00-.115.334 2.125 2.125 0 00-.118.065l.032.05c-.115.1-.419.234-.441.31-.056.169.269.245.237.405-.009.035-.272.2-.322.245s-.041.118-.059.165c-.035.021-.077.042-.115.065-.035.065.086.1.088.151a2.088 2.088 0 01-.118.065c-.018.133-.006.118-.026.216l-.119.065a1.37 1.37 0 00-.177-.036c-.189.08-.2.18-.2.18-.333.236-.553.21-.733.34.009.018.02.032.029.053a1.563 1.563 0 00-.116.065 2.5 2.5 0 01-.263.345c-.02.071.092.139.116.2-.024 0-.051.024-.085.121.009.015.02.033.029.051.059-.033.425-.254.47-.26a1.562 1.562 0 01.354.071c.011-.03.448-.225.174-.231-.061.177-.147.015-.147.015l.236-.133c.014.124.172.18.178.3-.038.021-.077.045-.118.065l.06.1c-.327.168-.621.345-.94.522-.124-.023.1-.112-.147.012-.029-.05-.053-.171-.118-.2-.038.021-.079.045-.118.065l-.06-.1s-.119.03-.147.015c0 .015-.334.186-.352.2-.017.127.228.171.178.3a3.815 3.815 0 01-.352.2c.194.053-.6.316-.7.39-.065.047-.026.212-.029.215l-.322.245c.08.065.169-.026.295-.029-.045.115.191.141.148.254 0 .006-.337.189-.352.2-.056.159-.011.135-.145.28a.969.969 0 01.177.036l.234-.13c.015.262-.466.519-.466.525a.18.18 0 00.029.05l.234-.129c.02-.006.151.041.177.035l.265-.08c-.014.045-.124.163-.059.169-.308.135-.2.18-.2.18.039-.024.077-.045.118-.068.055.094.318-.118.5-.21a.365.365 0 01-.03-.05l.118-.062c-.136-.233.082.106-.147.012a.384.384 0 01-.178-.3c.035-.237.225.118.088-.116.127-.079.331-.186.469-.26l-.03-.05-.234.13c-.032-.05-.059-.165-.12-.2l.116-.065a.335.335 0 00-.03-.05c.325-.186.755-.378 1.058-.585l.029-.218c.2-.13.07-.03.147-.015.065-.035.281-.162.352-.2 0 0 .068-.239.174-.23a2.174 2.174 0 00.442-.044 1.62 1.62 0 00.086-.384l.234-.13c.03.009.177.035.177.035a13.941 13.941 0 001.291-.714c.054.017.07.118.089.15.044-.009.248-.082.266-.077l.059.1.116-.062c.051.021.07.112.089.15l.234-.129-.03-.054a.636.636 0 01.059-.071V515c.041-.024.076-.044.118-.065a.953.953 0 00.057-.168c.041-.021.077-.042.116-.065.018-.083-.127-.059-.089-.154l.207-.177c.03-.062 0-.139.026-.216-.035.021-.076.042-.116.065a.679.679 0 00-.091-.15c-.233.115-.03.038-.145.012a7.113 7.113 0 01-.7.392c-.008-.121-.2-.165-.178-.3.039-.021.077-.041.116-.065.033-.1.06-.071.057-.165a4.981 4.981 0 00.44-.31l.03.05c.044-.009.248-.083.265-.08l.059.1.234-.13c.038-.086-.141-.116-.118-.2l.41-.36c.083 0 .106.053.177.035l.234-.13.03.05c.3-.112.479-.274.646-.224.042-.024.077-.044.118-.065s.077-.042.118-.065l-.059-.1c.065-.038.286-.15.351-.194-.02.014.085.141.091.15-.216.136-.482.266-.7.39.139.018-.5.41-.383.145-.125.1-.228.1-.352.2a.545.545 0 00-.057.165c-.092.053-.263.133-.354.2.033.059.18.171.151.251a12.239 12.239 0 011.291-.715l.059.1c.041-.012.248-.083.265-.08l.059.1.234-.13c.333.077.142-.071.5-.209-.089-.018-.077-.039-.177-.036l-.263.08c-.035-.015-.074-.121-.091-.151l.116-.062-.059-.1c.042-.024.077-.041.118-.065l-.029-.05c-.038.021-.077.041-.118.065.032-.083-.03-.225-.032-.319a.538.538 0 01.1-.059c-.014 0-.03-.006-.012-.056.036-.012.5-.21.5-.21l-.059-.1.234-.13-.03-.051a1.492 1.492 0 00.206-.18c-.056-.047-.062-.153-.119-.2-.036.02-.077.041-.116.064-.05-.082-.148-.144-.148-.253l.115-.065c.021-.13-.014-.1.03-.216l.233-.13c-.029-.109-.118.024-.265.08-.153-.1-.151-.29-.354-.337l-.234.13a2 2 0 00-.207-.086c-.036.021-.077.042-.118.065-.148-.091-.02-.224-.032-.319.041-.02.077-.044.118-.065l-.059-.1s.315-.174.352-.2c.017.03.032.145.088.151-.187.017-.086.115-.086.115-.236.1-.07.056-.088.118.142-.065.325-.2.469-.263.308-.13-.222.225.265-.079l-.03-.051.234-.13c.006-.017.054-.159.059-.165.249-.2.484-.168.556-.375.041-.024.077-.044.118-.065l.03.05c.032-.012.5-.212.5-.212.109 0 .079.115.207.088a1.056 1.056 0 00-.263.346c-.119.047-.243.15-.352.2l-.03-.051-.236.133a.479.479 0 00-.029-.05c-.251.106-.451.275-.7.39.145-.027.021.021.265-.083l.059.1.236-.133.175.035c.145-.05.21-.153.352-.2l-.059-.1a4.414 4.414 0 00.469-.26l.059-.165c.228-.157.632-.287.821-.455l-.059-.1.29-.3c.032-.186-.062.05-.147.018-.132-.05.053-.136.057-.169l-.059-.1s.405-.2.735-.34c0-.029-.269-.017-.325-.02a4.626 4.626 0 01.44-.31c.015-.027-.079-.133-.089-.151.039-.029.064-.047.083-.059-.006-.006-.008-.021 0-.056l.234-.13c.021-.065-.132-.086-.091-.151.071-.106.207-.124.324-.248l-.059-.1.234-.13c0-.018.054-.162.057-.165l.236-.13-.06-.1c.041-.023-.041.036 0 .012 0-.018.054-.159.057-.165l.236-.13a1.883 1.883 0 010-.266l.206-.183-.059-.1.116-.068-.059-.1a1.64 1.64 0 00.116-.065c.021-.065-.089-.091-.088-.15.039-.021.183.029.224.008l-.059-.1c.039-.021.077-.041.116-.065l-.06-.1c.042-.021.077-.042.118-.065l-.059-.1c.041-.02.077-.044.118-.065l-.06-.1c.042-.024.079-.041.118-.065l-.06-.1c.042-.024.079-.042.119-.065l-.06-.1.118-.068c.014-.062-.091-.094-.089-.147l.116-.068-.059-.1a1.282 1.282 0 00.116-.065c0-.035-.1-.106-.089-.15.041-.021.077-.042.118-.065l-.059-.1c.039-.023.077-.041.116-.065l-.059-.1c.041-.024.077-.044.118-.065 0-.074-.138-.118-.119-.2l.116-.062.059-.183c.039-.021.077-.038.118-.062l-.06-.1.116-.062-.059-.1c.041-.02.079-.041.118-.062l-.059-.1c.039-.024.077-.041.116-.065.029-.148-.113-.151-.032-.316l.1-.254c.018-.086-.109-.059-.089-.151a1.266 1.266 0 00.116-.065l-.059-.1c.041-.021.077-.041.118-.065.015-.2-.154-.3-.151-.517.041-.023.077-.044.118-.065.009-.15-.1-.2-.062-.366l.118-.068-.059-.1c.041-.024.076-.042.118-.065-.006-.124-.193-.169-.18-.3.041-.024.077-.045.118-.065.03-.089-.109-.062-.089-.151l.2-.18c.027-.062-.033-.189 0-.269.041-.023.077-.041.118-.065 0-.177-.23-.289-.269-.455.041-.02.08-.041.118-.062-.024-.106-.127-.141-.148-.251l.116-.068a1.5 1.5 0 00-.15-.251c.041-.02.079-.044.119-.065a6.108 6.108 0 00-.183-.764c.041-.021.077-.042.118-.065-.153-.26-.289-.768-.44-1.04.029.021.1.053.136.08a1.831 1.831 0 00-.209-.2 3.851 3.851 0 00-.624-1.267c-1.237-2.353-4.379-3.3-4.379-3.3-11.454-3.3-17.742 7.43-17.742 7.43s-.048.162.059.18a.413.413 0 00.233-.053 22.408 22.408 0 018.155-3.609zm1.205 22l-.234.133c-.059-.1.054-.074.2-.185a.451.451 0 00.034.057zm.936-.786c.059-.018.227-.08.265-.083-.017.048-.127.16-.057.169-.138.065-.34.189-.469.26-.088-.015.067-.121-.147.014a2 2 0 00.115-.33c.034.011.428-.252.293-.025zm.735-.342l-.118.067c-.068-.118.056-.138.059-.168zm2.466-1.1a2.507 2.507 0 01-.118.065c-.068-.115.057-.136.059-.165zm.667-1.775l-.06-.1s.407-.4.352-.2zm2.256-1.45c-.021.053.074.121.091.151l-.322.245c.236-.1-.088.115-.088.115-.011-.018-.02-.032-.029-.05l-.236.133a.252.252 0 00-.03-.053c-.269.112-.552.324-.821.454.018-.091-.106-.18-.15-.251.192-.079.041-.112.324-.245a.565.565 0 00.03.05l.234-.129.03.05a9.2 9.2 0 00.821-.455c.123.033-.091.106.146-.009zm.048-2.032l.029.051-.47.26c-.053-.086.269-.198.441-.305z" class="cls-1" transform="translate(-257.171 -490.351)"/><path id="패스_38172" d="M272.359 493.922l.024.032c.017-.006-.001-.017-.024-.032z" class="cls-1" transform="translate(-249.394 -488.523)"/></g></g><path id="패스_38173" fill="#00682e" d="M274.78 476.335a16.119 16.119 0 012.894-.168c.936.077.886.34.886.34 0 .112-.033.327-.579.54-.541.189-2.165.868-2.165.868-23.635 9.834-20.937 21.453-20.937 21.453 1.291 11.353 19.537 11.027 19.537 11.027 2.193 0 2.626-.1 3.107-.1.5.006.488.142.488.142.071.251-.178.5-.569.806-2.537 2.014-7.482 3.137-7.482 3.137s-24.033 5.918-27.247-11.173c0 0-3.133-12.276 13.7-20.956a57.083 57.083 0 0118.365-5.917"/><g id="그룹_16988" transform="translate(300.571 487.608)"><path id="패스_38174" d="M300.537 489.3v3.777h6.863v4.973h-6.863v3.9h7.294v4.976h-13.168v-22.6h13.169v4.974z" class="cls-3" transform="translate(-273.853 -483.423)"/><path id="패스_38175" d="M305.847 484.324h5.873l9.466 13.813h.059v-13.813h5.874v22.6h-5.874l-9.466-13.846h-.059v13.842h-5.873z" class="cls-3" transform="translate(-268.126 -483.423)"/><path id="패스_38176" d="M333.027 506.92h-5.871V489.3h-5.286v-4.973h16.444v4.973h-5.286z" class="cls-3" transform="translate(-259.921 -483.423)"/><path id="패스_38177" d="M354.648 484.324v12.706c0 2.9-.121 5.782-2.369 7.97-1.89 1.858-4.855 2.519-7.492 2.519s-5.605-.661-7.492-2.519c-2.244-2.188-2.365-5.065-2.365-7.97v-12.706h5.87v11.9c0 2.939.21 6.143 3.987 6.143s3.987-3.2 3.987-6.143v-11.9z" class="cls-3" transform="translate(-253.234 -483.423)"/><path id="패스_38178" d="M369.214 506.92H361.9l-5.543-8.694h-.057v8.694h-5.871v-22.6h8.771c4.467 0 7.851 2.126 7.851 6.949 0 3.118-1.74 5.818-4.944 6.385zM356.3 494.453h.572c1.917 0 4.073-.363 4.073-2.817s-2.156-2.817-4.073-2.817h-.572z" class="cls-3" transform="translate(-245.299 -483.423)"/><path id="패스_38179" d="M361.97 484.324h7.043l4.223 7.436 4.226-7.436h7.04l-8.328 13.038v9.558H370.3v-9.558z" class="cls-3" transform="translate(-239.387 -483.423)"/><path id="패스_38180" d="M398.156 502.249v4.976H380l9.228-10.042a8.8 8.8 0 002.58-5.543 2.8 2.8 0 00-2.58-2.938 2.479 2.479 0 00-2.457 2.761 5.517 5.517 0 00.089.957h-6.47c.177-5.183 3.476-8.693 8.809-8.693 4.734 0 8.722 3.119 8.722 8.034 0 3.234-1.35 5.124-3.659 7.22l-3.506 3.268z" class="cls-3" transform="translate(-230.156 -483.728)"/><path id="패스_38181" d="M394.417 489.3v-4.973h9.11v22.6h-5.873V489.3z" class="cls-3" transform="translate(-222.773 -483.423)"/><path id="패스_38182" d="M295.066 501.708a6.386 6.386 0 01-1.94.316 5.858 5.858 0 01-6.113-6.139 5.954 5.954 0 016.024-6.264 6.881 6.881 0 012.022.31l3.042-4.9a11.662 11.662 0 00-5.274-1.1 12.246 12.246 0 00-8.6 3.656 11.817 11.817 0 00-3.327 8.268 11.049 11.049 0 003.627 8.542 12.587 12.587 0 008.48 3.328 12.048 12.048 0 005.147-1.039z" class="cls-3" transform="translate(-280.9 -483.626)"/><path id="패스_38183" d="M418.969 501.708a6.359 6.359 0 01-1.937.316 5.856 5.856 0 01-6.113-6.139 5.951 5.951 0 016.021-6.264 6.9 6.9 0 012.023.31l3.042-4.9a11.672 11.672 0 00-5.276-1.1 12.243 12.243 0 00-8.6 3.656 11.812 11.812 0 00-3.328 8.268 11.063 11.063 0 003.626 8.542 12.592 12.592 0 008.483 3.328 12.048 12.048 0 005.147-1.039z" class="cls-3" transform="translate(-217.455 -483.626)"/><path id="패스_38184" d="M430.873 501.708a6.386 6.386 0 01-1.94.316 5.859 5.859 0 01-6.113-6.139 5.953 5.953 0 016.024-6.264 6.907 6.907 0 012.023.31l3.042-4.9a11.671 11.671 0 00-5.277-1.1 12.242 12.242 0 00-8.6 3.656 11.812 11.812 0 00-3.328 8.268 11.053 11.053 0 003.626 8.542 12.6 12.6 0 008.483 3.328 12.057 12.057 0 005.147-1.039z" class="cls-3" transform="translate(-211.359 -483.626)"/></g></g></svg>